<svg width="18" height="18" fill="none" xmlns="http://www.w3.org/2000/svg"><path fill-rule="evenodd" clip-rule="evenodd" d="M16.931 0H12a1.027 1.027 0 000 2.055h2.451L.301 16.205a1.027 1.027 0 000 1.453c.383.383 1.042.41 1.453 0l14.15-14.15v2.45a1.027 1.027 0 002.055 0v-4.93C17.959.46 17.499 0 16.932 0z" fill="#374957"/><path fill-rule="evenodd" clip-rule="evenodd" d="M1.027 17.956H5.96a1.027 1.027 0 100-2.055H3.508l14.15-14.15a1.027 1.027 0 000-1.453 1.035 1.035 0 00-1.453 0l-14.15 14.15v-2.45a1.027 1.027 0 10-2.055 0v4.93c0 .568.46 1.028 1.027 1.028z" fill="#374957"/></svg>